<svg xmlns="http://www.w3.org/2000/svg" width="128" height="128" viewBox="1.5 2.5 22 22">
  <!-- Eyedropper + code brackets icon, cropped to fill space -->
  <path fill="currentColor" d="M4 21q-.425 0-.712-.288T3 20v-2.925q0-.4.15-.775t.425-.65l8.35-8.325l-.7-.725q-.3-.3-.3-.7t.3-.7t.7-.288t.7.288l1.225 1.2l3.1-3.1q.125-.125.313-.2t.387-.075t.375.075t.325.2l2.35 2.35q.125.15.2.325t.075.375t-.075.388t-.2.312l-3.1 3.1l.7.725q.275.3.288.713t-.288.712t-.712.3t-.713-.3L13.35 8.75L5 17.075V19h1.2q.425 0 .713.288T7.2 20t-.288.713T6.2 21z"/>
  <g transform="translate(10.5, 12.5) scale(0.55)">
    <path fill="currentColor" d="M14.486 3.143a1 1 0 0 1 .692 1.233l-4.43 15.788a1 1 0 0 1-1.926-.54l4.43-15.788a1 1 0 0 1 1.234-.693M7.207 7.05a1 1 0 0 1 0 1.414L3.672 12l3.535 3.535a1 1 0 1 1-1.414 1.415L1.55 12.707a1 1 0 0 1 0-1.414L5.793 7.05a1 1 0 0 1 1.414 0m9.586 1.414a1 1 0 1 1 1.414-1.414l4.243 4.243a1 1 0 0 1 0 1.414l-4.243 4.243a1 1 0 0 1-1.414-1.415L20.328 12z"/>
  </g>
</svg>
